<?xml version="1.0" encoding="UTF-8"?>
<svg width="200px" height="200px" viewBox="0 0 200 200" version="1.1" xmlns="http://www.w3.org/2000/svg">
    <title>AI Integration</title>
    <g stroke="none" stroke-width="1" fill="none" fill-rule="evenodd">
        <g transform="translate(40, 40)">
            <path d="M60,0 C93.137,0 120,26.863 120,60 C120,93.137 93.137,120 60,120 C26.863,120 0,93.137 0,60 C0,26.863 26.863,0 60,0 Z" fill="#F0F5FF" fill-rule="nonzero"></path>
            <path d="M85,30 C87.761,30 90,32.239 90,35 L90,85 C90,87.761 87.761,90 85,90 L35,90 C32.239,90 30,87.761 30,85 L30,35 C30,32.239 32.239,30 35,30 L85,30 Z" fill="#2F54EB" fill-rule="nonzero"></path>
            <path d="M45,45 L45,75 L40,75 L40,45 L45,45 Z M55,45 L55,75 L50,75 L50,45 L55,45 Z M80,45 L80,50 L65,50 L65,60 L75,60 L75,65 L65,65 L65,75 L60,75 L60,45 L80,45 Z" fill="#FFFFFF" fill-rule="nonzero"></path>
            <path d="M30,95 L90,95 L90,100 L30,100 L30,95 Z" fill="#2F54EB" fill-rule="nonzero"></path>
            <path d="M35,20 L85,20 L85,25 L35,25 L35,20 Z" fill="#2F54EB" fill-rule="nonzero"></path>
        </g>
    </g>
</svg>
