<?xml version="1.0" encoding="UTF-8"?>
<svg width="120px" height="120px" viewBox="0 0 120 120" version="1.1" xmlns="http://www.w3.org/2000/svg">
    <title>Zero Knowledge Security</title>
    <g stroke="none" stroke-width="1" fill="none" fill-rule="evenodd">
        <circle fill="#E6F7FF" cx="60" cy="60" r="60"/>
        <g transform="translate(20, 20)">
            <!-- Document with lock -->
            <path d="M60,0 L15,0 C10.029,0 6,4.029 6,9 L6,71 C6,75.971 10.029,80 15,80 L65,80 C69.971,80 74,75.971 74,71 L74,14 L60,0 Z" fill="#FFFFFF"/>
            <path d="M60,0 L60,14 L74,14 L60,0 Z" fill="#D9D9D9"/>
            <path d="M40,30 C46.627,30 52,35.373 52,42 L52,48 L54,48 C56.209,48 58,49.791 58,52 L58,68 C58,70.209 56.209,72 54,72 L26,72 C23.791,72 22,70.209 22,68 L22,52 C22,49.791 23.791,48 26,48 L28,48 L28,42 C28,35.373 33.373,30 40,30 Z M40,36 C36.686,36 34,38.686 34,42 L34,48 L46,48 L46,42 C46,38.686 43.314,36 40,36 Z" fill="#1677FF"/>
            <circle fill="#FFFFFF" cx="40" cy="60" r="6"/>
        </g>
        <!-- Key -->
        <g transform="translate(15, 65)">
            <path d="M25,0 C38.807,0 50,11.193 50,25 C50,38.807 38.807,50 25,50 C11.193,50 0,38.807 0,25 C0,11.193 11.193,0 25,0 Z" fill="#1677FF" opacity="0.2"/>
            <path d="M25,10 C33.284,10 40,16.716 40,25 C40,33.284 33.284,40 25,40 C16.716,40 10,33.284 10,25 C10,16.716 16.716,10 25,10 Z M25,15 C19.477,15 15,19.477 15,25 C15,30.523 19.477,35 25,35 C30.523,35 35,30.523 35,25 C35,19.477 30.523,15 25,15 Z" fill="#1677FF"/>
            <circle fill="#1677FF" cx="25" cy="25" r="5"/>
        </g>
    </g>
</svg>
